<svg xmlns="http://www.w3.org/2000/svg" viewBox="0 0 1200 630" role="img" aria-label="Default article cover" preserveAspectRatio="xMidYMid slice">
  <defs>
    <linearGradient id="bg" x1="0" y1="0" x2="1" y2="1">
      <stop offset="0" stop-color="#0f172a"/>
      <stop offset="0.52" stop-color="#1d4ed8"/>
      <stop offset="1" stop-color="#7c3aed"/>
    </linearGradient>
    <radialGradient id="glow" cx="50%" cy="50%" r="50%">
      <stop offset="0" stop-color="#ffffff" stop-opacity="0.34"/>
      <stop offset="1" stop-color="#ffffff" stop-opacity="0"/>
    </radialGradient>
  </defs>
  <rect width="1200" height="630" fill="url(#bg)"/>
  <circle cx="1040" cy="110" r="260" fill="url(#glow)" opacity="0.9"/>
  <circle cx="160" cy="520" r="260" fill="url(#glow)" opacity="0.55"/>
  <path d="M120 430 C260 260 410 250 545 365 S780 520 1080 250" fill="none" stroke="#dbeafe" stroke-width="18" stroke-linecap="round" opacity="0.72"/>
  <path d="M120 485 C300 360 470 585 650 438 S890 215 1080 360" fill="none" stroke="#bfdbfe" stroke-width="10" stroke-linecap="round" opacity="0.52"/>
  <g opacity="0.86">
    <circle cx="330" cy="245" r="8" fill="#ffffff"/>
    <circle cx="510" cy="315" r="6" fill="#ffffff"/>
    <circle cx="700" cy="210" r="7" fill="#ffffff"/>
    <circle cx="850" cy="380" r="5" fill="#ffffff"/>
    <circle cx="980" cy="285" r="8" fill="#ffffff"/>
  </g>
  <rect x="92" y="88" width="210" height="12" rx="6" fill="#ffffff" opacity="0.78"/>
  <rect x="92" y="122" width="330" height="12" rx="6" fill="#ffffff" opacity="0.42"/>
  <rect x="92" y="156" width="270" height="12" rx="6" fill="#ffffff" opacity="0.3"/>
</svg>